<svg width="76" height="12" viewBox="0 0 76 12" fill="none" xmlns="http://www.w3.org/2000/svg">
<path fill-rule="evenodd" clip-rule="evenodd" d="M5.50008 1.595C5.53462 1.48548 5.60317 1.38982 5.69579 1.32192C5.7884 1.25402 5.90024 1.21741 6.01508 1.21741C6.12992 1.21741 6.24177 1.25402 6.33438 1.32192C6.42699 1.38982 6.49555 1.48548 6.53008 1.595L7.46008 4.455H10.4601C10.579 4.45051 10.6962 4.48507 10.7936 4.55342C10.8911 4.62177 10.9635 4.72014 10.9997 4.83351C11.036 4.94688 11.0342 5.069 10.9945 5.18123C10.9549 5.29346 10.8795 5.38961 10.7801 5.455L8.34508 7.22L9.27508 10.085C9.31186 10.1941 9.31279 10.3122 9.27773 10.4219C9.24267 10.5316 9.17345 10.6272 9.0802 10.6947C8.98694 10.7623 8.87452 10.7983 8.75936 10.7974C8.6442 10.7966 8.53233 10.7589 8.44008 10.69L6.00008 8.905L3.56508 10.675C3.47284 10.7439 3.36097 10.7816 3.2458 10.7824C3.13064 10.7833 3.01823 10.7473 2.92497 10.6797C2.83171 10.6122 2.7625 10.5166 2.72744 10.4069C2.69238 10.2972 2.6933 10.1791 2.73008 10.07L3.66008 7.205L1.22508 5.44C1.12562 5.37461 1.05031 5.27846 1.01064 5.16623C0.970978 5.054 0.969144 4.93188 1.00542 4.81851C1.0417 4.70514 1.11409 4.60677 1.21154 4.53842C1.30899 4.47007 1.42614 4.43551 1.54508 4.44H4.54508L5.50008 1.595Z" fill="#FBAD39"/>
<path fill-rule="evenodd" clip-rule="evenodd" d="M21.5001 1.595C21.5346 1.48548 21.6032 1.38982 21.6958 1.32192C21.7884 1.25402 21.9002 1.21741 22.0151 1.21741C22.1299 1.21741 22.2418 1.25402 22.3344 1.32192C22.427 1.38982 22.4955 1.48548 22.5301 1.595L23.4601 4.455H26.4601C26.579 4.45051 26.6962 4.48507 26.7936 4.55342C26.8911 4.62177 26.9635 4.72014 26.9997 4.83351C27.036 4.94688 27.0342 5.069 26.9945 5.18123C26.9549 5.29346 26.8795 5.38961 26.7801 5.455L24.3451 7.22L25.2751 10.085C25.3119 10.1941 25.3128 10.3122 25.2777 10.4219C25.2427 10.5316 25.1735 10.6272 25.0802 10.6947C24.9869 10.7623 24.8745 10.7983 24.7594 10.7974C24.6442 10.7966 24.5323 10.7589 24.4401 10.69L22.0001 8.905L19.5651 10.675C19.4728 10.7439 19.361 10.7816 19.2458 10.7824C19.1306 10.7833 19.0182 10.7473 18.925 10.6797C18.8317 10.6122 18.7625 10.5166 18.7274 10.4069C18.6924 10.2972 18.6933 10.1791 18.7301 10.07L19.6601 7.205L17.2251 5.44C17.1256 5.37461 17.0503 5.27846 17.0106 5.16623C16.971 5.054 16.9691 4.93188 17.0054 4.81851C17.0417 4.70514 17.1141 4.60677 17.2115 4.53842C17.309 4.47007 17.4261 4.43551 17.5451 4.44H20.5451L21.5001 1.595Z" fill="#FBAD39"/>
<path fill-rule="evenodd" clip-rule="evenodd" d="M37.5001 1.595C37.5346 1.48548 37.6032 1.38982 37.6958 1.32192C37.7884 1.25402 37.9002 1.21741 38.0151 1.21741C38.1299 1.21741 38.2418 1.25402 38.3344 1.32192C38.427 1.38982 38.4955 1.48548 38.5301 1.595L39.4601 4.455H42.4601C42.579 4.45051 42.6962 4.48507 42.7936 4.55342C42.8911 4.62177 42.9635 4.72014 42.9997 4.83351C43.036 4.94688 43.0342 5.069 42.9945 5.18123C42.9549 5.29346 42.8795 5.38961 42.7801 5.455L40.3451 7.22L41.2751 10.085C41.3119 10.1941 41.3128 10.3122 41.2777 10.4219C41.2427 10.5316 41.1735 10.6272 41.0802 10.6947C40.9869 10.7623 40.8745 10.7983 40.7594 10.7974C40.6442 10.7966 40.5323 10.7589 40.4401 10.69L38.0001 8.905L35.5651 10.675C35.4728 10.7439 35.361 10.7816 35.2458 10.7824C35.1306 10.7833 35.0182 10.7473 34.925 10.6797C34.8317 10.6122 34.7625 10.5166 34.7274 10.4069C34.6924 10.2972 34.6933 10.1791 34.7301 10.07L35.6601 7.205L33.2251 5.44C33.1256 5.37461 33.0503 5.27846 33.0106 5.16623C32.971 5.054 32.9691 4.93188 33.0054 4.81851C33.0417 4.70514 33.1141 4.60677 33.2115 4.53842C33.309 4.47007 33.4261 4.43551 33.5451 4.44H36.5451L37.5001 1.595Z" fill="#FBAD39"/>
<path fill-rule="evenodd" clip-rule="evenodd" d="M53.5001 1.595C53.5346 1.48548 53.6032 1.38982 53.6958 1.32192C53.7884 1.25402 53.9002 1.21741 54.0151 1.21741C54.1299 1.21741 54.2418 1.25402 54.3344 1.32192C54.427 1.38982 54.4955 1.48548 54.5301 1.595L55.4601 4.455H58.4601C58.579 4.45051 58.6962 4.48507 58.7936 4.55342C58.8911 4.62177 58.9635 4.72014 58.9997 4.83351C59.036 4.94688 59.0342 5.069 58.9945 5.18123C58.9549 5.29346 58.8795 5.38961 58.7801 5.455L56.3451 7.22L57.2751 10.085C57.3119 10.1941 57.3128 10.3122 57.2777 10.4219C57.2427 10.5316 57.1735 10.6272 57.0802 10.6947C56.9869 10.7623 56.8745 10.7983 56.7594 10.7974C56.6442 10.7966 56.5323 10.7589 56.4401 10.69L54.0001 8.905L51.5651 10.675C51.4728 10.7439 51.361 10.7816 51.2458 10.7824C51.1306 10.7833 51.0182 10.7473 50.925 10.6797C50.8317 10.6122 50.7625 10.5166 50.7274 10.4069C50.6924 10.2972 50.6933 10.1791 50.7301 10.07L51.6601 7.205L49.2251 5.44C49.1256 5.37461 49.0503 5.27846 49.0106 5.16623C48.971 5.054 48.9691 4.93188 49.0054 4.81851C49.0417 4.70514 49.1141 4.60677 49.2115 4.53842C49.309 4.47007 49.4261 4.43551 49.5451 4.44H52.5451L53.5001 1.595Z" fill="#FBAD39"/>
<g clip-path="url(#clip0_44_17462)">
<path fill-rule="evenodd" clip-rule="evenodd" d="M69.5001 1.595C69.5346 1.48548 69.6032 1.38982 69.6958 1.32192C69.7884 1.25402 69.9002 1.21741 70.0151 1.21741C70.1299 1.21741 70.2418 1.25402 70.3344 1.32192C70.427 1.38982 70.4955 1.48548 70.5301 1.595L71.4601 4.455H74.4601C74.579 4.45051 74.6962 4.48507 74.7936 4.55342C74.8911 4.62177 74.9635 4.72014 74.9997 4.83351C75.036 4.94688 75.0342 5.069 74.9945 5.18123C74.9549 5.29346 74.8795 5.38961 74.7801 5.455L72.3451 7.22L73.2751 10.085C73.3119 10.1941 73.3128 10.3122 73.2777 10.4219C73.2427 10.5316 73.1735 10.6272 73.0802 10.6947C72.9869 10.7623 72.8745 10.7983 72.7594 10.7974C72.6442 10.7966 72.5323 10.7589 72.4401 10.69L70.0001 8.905L67.5651 10.675C67.4728 10.7439 67.361 10.7816 67.2458 10.7824C67.1306 10.7833 67.0182 10.7473 66.925 10.6797C66.8317 10.6122 66.7625 10.5166 66.7274 10.4069C66.6924 10.2972 66.6933 10.1791 66.7301 10.07L67.6601 7.205L65.2251 5.44C65.1256 5.37461 65.0503 5.27846 65.0106 5.16623C64.971 5.054 64.9691 4.93188 65.0054 4.81851C65.0417 4.70514 65.1141 4.60677 65.2115 4.53842C65.309 4.47007 65.4261 4.43551 65.5451 4.44H68.5451L69.5001 1.595Z" stroke="#90A3BF" stroke-width="1.5" stroke-linecap="round" stroke-linejoin="round"/>
</g>
<defs>
<clipPath id="clip0_44_17462">
<rect width="12" height="12" fill="white" transform="translate(64)"/>
</clipPath>
</defs>
</svg>
